<svg width="513" height="427" viewBox="0 0 513 427" fill="none" xmlns="http://www.w3.org/2000/svg">
<path d="M256.501 245.232C256.511 240.821 260.09 237.25 264.501 237.25H504.361C508.779 237.25 512.361 240.832 512.361 245.25V300.24C512.361 304.662 508.773 308.246 504.351 308.24L264.369 307.935C259.947 307.929 256.369 304.338 256.379 299.917L256.501 245.232Z" fill="#FF5555"/>
<g filter="url(#filter0_f_2203_16)">
<path d="M277.101 275.653L313.243 238.376L328.717 253.453L287.778 295.466L277.101 275.653Z" fill="black"/>
</g>
<path d="M356.169 252.242L357.152 271.801L376.058 266.692L357.76 273.672L368.461 290.073L356.169 274.828L343.877 290.073L354.578 273.672L336.28 266.692L355.186 271.801L356.169 252.242Z" fill="black"/>
<rect x="392.766" y="237.211" width="1.30704" height="71.2338" fill="black"/>
<rect x="318.265" y="237.211" width="1.30704" height="71.2338" fill="black"/>
<path d="M238.156 238.089C237.359 235.33 238.103 232.355 240.104 230.295L448.875 15.4545C451.957 12.2827 457.028 12.2136 460.195 15.3001L500.05 54.1361C503.215 57.2196 503.28 62.2845 500.197 65.4489L269.2 302.506C264.918 306.901 257.486 305.038 255.784 299.143L238.156 238.089Z" fill="#FF5555"/>
<path d="M291.884 233.573L289.02 230.782L288.086 229.97L288.176 229.878L289.381 230.411L293.058 231.695L294.552 230.161L293.174 226.519L292.61 225.328L292.7 225.236L293.543 226.14L296.408 228.931L297.639 227.668L291.995 222.167L290.32 223.886L291.852 227.875L292.674 229.678L292.584 229.771L290.744 229.013L286.675 227.626L285.008 229.336L290.653 234.837L291.884 233.573ZM299.634 225.789C300.545 224.854 300.724 223.879 300.256 223.044L300.321 222.977L301.29 223.921L302.44 222.742L299.963 220.328C298.859 219.253 297.486 219.212 296.115 220.619C294.76 222.009 294.631 223.591 295.676 224.609L295.701 224.634L296.941 223.362L296.907 223.329C296.427 222.861 296.513 222.436 297.137 221.795C297.793 221.121 298.183 221.025 298.731 221.558L298.891 221.714L297.311 223.706C296.525 224.698 296.461 225.539 297.085 226.147C297.792 226.836 298.747 226.699 299.634 225.789ZM298.24 224.792C298.038 224.595 298.085 224.379 298.355 224.051L299.615 222.421C300.181 223.037 299.931 223.698 299.094 224.557C298.733 224.928 298.468 225.014 298.24 224.792ZM304.295 220.838L302.77 219.352L303.714 218.383L306.266 218.816L307.719 217.324L304.059 216.714L303.523 213.186L302.061 214.686L302.577 217.291L301.641 218.251L298.651 215.337L297.419 216.601L303.064 222.101L304.295 220.838ZM310.311 214.833C311.616 213.494 311.846 211.977 310.928 211.082L310.835 210.992L309.604 212.255L309.688 212.337C310.05 212.69 309.989 213.14 309.259 213.89C308.462 214.707 307.889 214.74 307.207 214.141L310.557 210.704C310.43 210.548 310.337 210.424 310.185 210.276C308.863 208.987 307.243 209.2 305.897 210.581C304.542 211.971 304.465 213.752 305.813 215.066C307.313 216.527 308.94 216.24 310.311 214.833ZM306.858 211.567C307.58 210.826 308.153 210.727 308.742 211.235L306.558 213.476C306.068 212.883 306.127 212.317 306.858 211.567ZM317.294 207.498L312.787 203.106L314.831 201.008L313.694 199.9L308.374 205.359L309.511 206.467L311.556 204.37L316.063 208.762L317.294 207.498ZM321.012 203.684L318.897 201.623C318.189 200.933 318.098 200.336 318.928 199.485C319.699 198.693 320.248 198.636 320.955 199.325L323.163 201.476L324.394 200.213L321.808 197.692C320.83 196.74 319.547 196.574 318.439 197.711C317.388 198.789 317.561 199.927 318.145 200.759L318.08 200.827L315.367 198.183L314.136 199.447L319.78 204.947L321.012 203.684ZM327.284 197.416C328.589 196.077 328.819 194.56 327.901 193.665L327.808 193.574L326.576 194.838L326.661 194.92C327.023 195.273 326.962 195.723 326.232 196.473C325.435 197.29 324.862 197.323 324.18 196.724L327.53 193.287C327.403 193.13 327.31 193.007 327.158 192.859C325.835 191.57 324.216 191.782 322.87 193.164C321.515 194.554 321.438 196.335 322.786 197.649C324.286 199.11 325.913 198.823 327.284 197.416ZM323.831 194.15C324.553 193.409 325.126 193.31 325.715 193.818L323.531 196.059C323.041 195.466 323.1 194.9 323.831 194.15ZM334.637 189.702C335.868 188.438 335.836 187.257 334.876 186.322C334.118 185.583 333.103 185.579 332.009 186.55L331.933 186.476C332.785 185.467 332.641 184.604 331.942 183.922C331.057 183.06 329.961 183.207 328.836 184.362L325.536 187.748L331.18 193.249L334.637 189.702ZM327.905 187.593L329.817 185.63C330.277 185.158 330.643 185.12 331.03 185.498C331.418 185.875 331.389 186.225 330.938 186.689L329.008 188.668L327.905 187.593ZM330.053 189.686L332.13 187.555C332.631 187.041 332.996 186.986 333.443 187.422C333.898 187.865 333.852 188.231 333.352 188.745L331.274 190.877L330.053 189.686ZM339.165 185.223C340.471 183.884 340.701 182.367 339.782 181.472L339.69 181.382L338.458 182.645L338.543 182.727C338.905 183.08 338.844 183.53 338.113 184.28C337.317 185.097 336.743 185.13 336.062 184.531L339.412 181.094C339.285 180.938 339.192 180.814 339.04 180.666C337.717 179.377 336.098 179.59 334.751 180.971C333.397 182.361 333.32 184.143 334.668 185.456C336.168 186.917 337.794 186.63 339.165 185.223ZM335.713 181.957C336.435 181.216 337.008 181.117 337.597 181.625L335.413 183.866C334.923 183.273 334.982 182.707 335.713 181.957ZM343.981 180.281C345.254 178.976 345.495 177.683 344.703 176.911C344.004 176.23 343.214 176.282 341.988 177.287L341 178.082C340.391 178.572 340.183 178.6 339.964 178.387C339.694 178.124 339.741 177.857 340.357 177.225C341.112 176.45 341.453 176.454 341.798 176.791L341.849 176.84L343.08 175.576L343.055 175.552C342.027 174.55 340.741 174.825 339.395 176.206C337.983 177.655 337.957 178.862 338.698 179.584C339.406 180.274 340.245 180.172 341.159 179.419L342.459 178.371C343.011 177.94 343.202 177.879 343.438 178.109C343.69 178.355 343.644 178.622 342.987 179.296C342.289 180.012 341.958 180.149 341.579 179.78L341.503 179.706L340.272 180.97L340.297 180.994C341.274 181.947 342.594 181.705 343.981 180.281ZM349.328 174.626L348.191 173.518L347.452 174.276C347.017 174.723 346.751 174.776 346.33 174.365L344.822 172.896L346.152 171.531L345.107 170.513L343.777 171.878L342.96 171.081L341.729 172.345L342.546 173.141L341.897 173.807L342.942 174.825L343.591 174.159L345.242 175.769C346.303 176.803 347.35 176.656 348.31 175.671L349.328 174.626ZM352.288 171.589L350.181 169.537L353.482 166.15L352.353 165.05L349.052 168.437L347.78 167.197L351.204 163.684L350.067 162.575L345.412 167.352L351.056 172.853L352.288 171.589ZM352.816 161.743L351.822 160.774L350.591 162.037L351.585 163.006L352.816 161.743ZM357.467 166.274L353.246 162.161L352.015 163.425L356.235 167.538L357.467 166.274ZM359.343 164.349L357.211 162.272C356.495 161.574 356.454 160.976 357.234 160.176C357.99 159.4 358.547 159.402 359.221 160.058L361.428 162.209L362.66 160.946L360.031 158.384C359.096 157.473 357.821 157.298 356.696 158.452C355.621 159.556 355.802 160.718 356.403 161.517L356.329 161.593L355.032 160.329L353.891 161.5L358.111 165.613L359.343 164.349ZM364.631 159.091C365.543 158.156 365.721 157.18 365.253 156.346L365.319 156.279L366.287 157.223L367.437 156.043L364.96 153.63C363.856 152.554 362.483 152.514 361.112 153.921C359.758 155.311 359.628 156.893 360.673 157.911L360.698 157.936L361.938 156.664L361.904 156.631C361.424 156.163 361.51 155.737 362.134 155.097C362.791 154.423 363.18 154.327 363.728 154.86L363.888 155.016L362.308 157.008C361.523 158 361.459 158.841 362.082 159.448C362.79 160.138 363.745 160.001 364.631 159.091ZM363.237 158.094C363.035 157.897 363.082 157.68 363.353 157.352L364.613 155.722C365.178 156.339 364.929 156.999 364.091 157.859C363.73 158.229 363.465 158.316 363.237 158.094ZM369.293 154.139L367.161 152.062C366.445 151.364 366.404 150.766 367.184 149.966C367.939 149.19 368.497 149.192 369.171 149.848L371.378 151.999L372.609 150.736L369.981 148.174C369.046 147.263 367.771 147.088 366.646 148.242C365.57 149.346 365.752 150.508 366.353 151.307L366.279 151.383L364.981 150.119L363.84 151.29L368.061 155.403L369.293 154.139ZM375.509 147.929C376.83 146.573 377.001 144.932 375.914 143.873L375.796 143.758L374.573 145.013L374.64 145.079C375.179 145.604 374.987 146.189 374.347 146.846C373.616 147.596 373.001 147.67 372.226 146.915C371.443 146.151 371.501 145.535 372.232 144.785C372.872 144.128 373.452 143.921 373.991 144.446L374.059 144.512L375.282 143.257L375.164 143.142C374.069 142.075 372.441 142.295 371.119 143.652C369.707 145.101 369.655 146.857 371.003 148.17C372.334 149.467 374.096 149.378 375.509 147.929ZM374.76 139.225L373.766 138.256L372.535 139.52L373.529 140.488L374.76 139.225ZM379.411 143.756L375.19 139.643L373.958 140.907L378.179 145.02L379.411 143.756ZM381.404 141.88C382.315 140.944 382.494 139.969 382.025 139.135L382.091 139.067L383.06 140.011L384.209 138.832L381.732 136.418C380.629 135.343 379.256 135.302 377.885 136.709C376.53 138.099 376.401 139.682 377.445 140.7L377.471 140.724L378.71 139.452L378.677 139.419C378.196 138.951 378.282 138.526 378.906 137.886C379.563 137.212 379.953 137.115 380.501 137.649L380.661 137.805L379.081 139.797C378.295 140.788 378.231 141.629 378.854 142.237C379.562 142.927 380.517 142.79 381.404 141.88ZM380.01 140.883C379.808 140.686 379.855 140.469 380.125 140.141L381.385 138.511C381.95 139.127 381.701 139.788 380.864 140.647C380.502 141.018 380.237 141.104 380.01 140.883ZM386.065 136.928L380.42 131.427L379.189 132.691L384.834 138.191L386.065 136.928ZM390.694 132.178C392.459 130.367 392.522 128.195 390.753 126.47C388.984 124.746 386.814 124.866 385.049 126.677L382.397 129.398L388.042 134.899L390.694 132.178ZM386.187 127.786C387.303 126.64 388.083 126.497 389.44 127.818C390.796 129.14 390.673 129.924 389.556 131.07L388.136 132.527L384.766 129.243L386.187 127.786ZM396.378 126.514C397.683 125.174 397.913 123.657 396.995 122.762L396.902 122.672L395.671 123.936L395.755 124.018C396.117 124.371 396.056 124.821 395.326 125.571C394.529 126.388 393.956 126.42 393.274 125.822L396.624 122.384C396.497 122.228 396.404 122.104 396.252 121.957C394.93 120.668 393.31 120.88 391.964 122.262C390.609 123.652 390.532 125.433 391.88 126.746C393.38 128.208 395.007 127.921 396.378 126.514ZM392.925 123.247C393.647 122.506 394.22 122.407 394.809 122.915L392.625 125.156C392.135 124.564 392.194 123.997 392.925 123.247ZM401.309 121.454C402.63 120.097 402.801 118.456 401.714 117.397L401.596 117.282L400.373 118.538L400.44 118.603C400.979 119.129 400.787 119.714 400.147 120.371C399.416 121.12 398.801 121.195 398.026 120.44C397.243 119.676 397.301 119.06 398.032 118.31C398.672 117.653 399.252 117.446 399.791 117.971L399.859 118.037L401.082 116.782L400.964 116.667C399.869 115.599 398.241 115.82 396.919 117.176C395.507 118.625 395.455 120.381 396.803 121.695C398.134 122.992 399.897 122.903 401.309 121.454ZM400.56 112.749L399.566 111.781L398.335 113.044L399.329 114.013L400.56 112.749ZM405.211 117.281L400.99 113.168L399.758 114.432L403.979 118.545L405.211 117.281ZM408.017 114.57C409.289 113.264 409.53 111.972 408.738 111.2C408.039 110.519 407.25 110.571 406.023 111.576L405.035 112.371C404.426 112.861 404.218 112.889 403.999 112.676C403.73 112.413 403.776 112.146 404.392 111.514C405.147 110.739 405.488 110.743 405.834 111.08L405.884 111.129L407.116 109.865L407.09 109.841C406.063 108.839 404.777 109.114 403.43 110.495C402.018 111.944 401.992 113.151 402.734 113.873C403.441 114.563 404.28 114.461 405.194 113.708L406.495 112.66C407.046 112.229 407.237 112.168 407.473 112.398C407.725 112.644 407.679 112.911 407.022 113.585C406.324 114.301 405.993 114.438 405.614 114.069L405.538 113.995L404.307 115.259L404.332 115.283C405.31 116.236 406.629 115.994 408.017 114.57ZM407.046 106.093L406.052 105.125L404.821 106.388L405.815 107.357L407.046 106.093ZM411.697 110.625L407.476 106.512L406.244 107.776L410.465 111.889L411.697 110.625ZM414.618 107.797C416.021 106.356 416.106 104.55 414.775 103.252C413.427 101.939 411.632 102.079 410.228 103.519C408.824 104.96 408.731 106.758 410.079 108.071C411.41 109.369 413.214 109.237 414.618 107.797ZM413.497 106.705C412.66 107.564 412.044 107.539 411.302 106.816C410.561 106.094 410.503 105.462 411.34 104.603C412.17 103.752 412.811 103.785 413.552 104.508C414.293 105.23 414.326 105.854 413.497 106.705ZM418.616 103.525L416.484 101.448C415.768 100.75 415.727 100.152 416.507 99.3515C417.262 98.5764 417.82 98.5775 418.494 99.2343L420.701 101.385L421.933 100.122L419.304 97.5601C418.369 96.6488 417.094 96.474 415.969 97.6281C414.894 98.7318 415.075 99.894 415.676 100.693L415.602 100.769L414.305 99.5047L413.164 100.676L417.384 104.789L418.616 103.525ZM424.717 97.4329C425.989 96.1271 426.231 94.8346 425.439 94.0629C424.739 93.3815 423.95 93.4333 422.723 94.439L421.735 95.2337C421.126 95.7241 420.918 95.7517 420.699 95.5383C420.43 95.2756 420.476 95.0088 421.092 94.3769C421.847 93.6018 422.188 93.6057 422.534 93.9423L422.584 93.9916L423.816 92.7279L423.791 92.7033C422.763 91.7017 421.477 91.9762 420.131 93.3578C418.718 94.8069 418.692 96.0134 419.434 96.7359C420.142 97.4255 420.98 97.3232 421.894 96.571L423.195 95.5227C423.747 95.0913 423.937 95.0306 424.173 95.2605C424.426 95.5068 424.379 95.7736 423.723 96.4475C423.025 97.1636 422.694 97.301 422.315 96.9316L422.239 96.8577L421.007 98.1214L421.033 98.146C422.01 99.0984 423.329 98.8567 424.717 97.4329Z" fill="black"/>
<path d="M0 250.846L464.709 3.75576C468.61 1.6815 473.454 3.16246 475.528 7.06357L501.553 56.0089C503.627 59.91 502.146 64.754 498.245 66.8283L33.5363 313.918L0 250.846Z" fill="black"/>
<g clip-path="url(#clip0_2203_16)">
<path d="M288.161 135.473L286.718 136.24C286.24 136.494 286.059 137.087 286.313 137.565C286.567 138.043 287.161 138.225 287.639 137.971L288.216 137.664C288.694 137.41 289.287 137.591 289.541 138.069C289.796 138.547 289.614 139.141 289.136 139.395L287.694 140.162M286.7 135.509L287.007 136.086M288.848 139.548L289.154 140.125M291.389 135.976L291.395 135.973M284.465 139.658L284.471 139.655M280.991 138.693L283.323 143.078C283.666 143.724 283.838 144.048 284.095 144.228C284.321 144.386 284.592 144.469 284.868 144.464C285.182 144.458 285.505 144.286 286.151 143.943L293.999 139.77C294.645 139.426 294.968 139.255 295.148 138.998C295.306 138.772 295.389 138.501 295.384 138.225C295.379 137.911 295.207 137.588 294.863 136.942L292.532 132.556C292.188 131.91 292.016 131.587 291.759 131.407C291.533 131.249 291.263 131.166 290.987 131.171C290.673 131.176 290.35 131.348 289.703 131.692L281.856 135.864C281.209 136.208 280.886 136.38 280.706 136.637C280.548 136.863 280.465 137.133 280.47 137.409C280.476 137.723 280.647 138.046 280.991 138.693ZM291.678 135.823C291.763 135.982 291.702 136.18 291.543 136.265C291.383 136.35 291.186 136.289 291.101 136.13C291.016 135.97 291.077 135.773 291.236 135.688C291.395 135.603 291.593 135.664 291.678 135.823ZM284.754 139.505C284.838 139.664 284.778 139.862 284.618 139.947C284.459 140.031 284.261 139.971 284.177 139.812C284.092 139.652 284.152 139.454 284.312 139.37C284.471 139.285 284.669 139.345 284.754 139.505Z" stroke="#FF5555" stroke-width="1.30704" stroke-linecap="round" stroke-linejoin="round"/>
</g>
<circle cx="287.927" cy="137.817" r="15.3578" transform="rotate(-28 287.927 137.817)" stroke="#FF5555" stroke-width="0.653521"/>
<path d="M310.494 119.817L309.114 117.221L313.289 115.001L312.549 113.609L308.374 115.829L307.54 114.26L311.871 111.958L311.125 110.555L305.236 113.687L308.936 120.646L310.494 119.817ZM313.998 110.6L313.347 109.374L311.789 110.203L312.44 111.428L313.998 110.6ZM317.047 116.333L314.28 111.13L312.722 111.958L315.489 117.162L317.047 116.333ZM319.42 115.071L318.023 112.443C317.554 111.561 317.697 110.978 318.684 110.454C319.639 109.945 320.17 110.116 320.612 110.947L322.058 113.669L323.616 112.84L321.893 109.6C321.28 108.447 320.119 107.892 318.696 108.648C317.336 109.372 317.154 110.534 317.483 111.478L317.39 111.528L316.539 109.928L315.095 110.696L317.862 115.9L319.42 115.071ZM326.059 111.674C327.212 111.061 327.68 110.187 327.488 109.25L327.571 109.205L328.206 110.4L329.66 109.627L328.036 106.573C327.313 105.212 326.018 104.755 324.283 105.678C322.569 106.589 321.964 108.057 322.649 109.344L322.665 109.376L324.234 108.542L324.212 108.5C323.897 107.908 324.108 107.529 324.898 107.109C325.729 106.668 326.129 106.694 326.488 107.37L326.593 107.567L324.482 108.983C323.431 109.688 323.114 110.469 323.522 111.238C323.986 112.111 324.938 112.271 326.059 111.674ZM325.036 110.3C324.903 110.051 325.014 109.859 325.371 109.629L327.068 108.46C327.419 109.22 326.98 109.773 325.921 110.336C325.464 110.579 325.185 110.581 325.036 110.3ZM332.008 108.378L330.611 105.751C330.141 104.868 330.284 104.285 331.271 103.761C332.227 103.253 332.757 103.423 333.199 104.254L334.646 106.976L336.204 106.147L334.481 102.907C333.868 101.754 332.707 101.199 331.284 101.955C329.923 102.679 329.742 103.841 330.071 104.785L329.977 104.835L329.127 103.235L327.683 104.003L330.45 109.207L332.008 108.378ZM339.82 104.358C341.493 103.468 342.155 101.957 341.442 100.617L341.365 100.472L339.817 101.295L339.862 101.378C340.215 102.043 339.854 102.541 339.044 102.972C338.119 103.463 337.511 103.347 337.003 102.392C336.49 101.426 336.733 100.856 337.658 100.365C338.468 99.9341 339.083 99.9135 339.436 100.578L339.481 100.661L341.028 99.8384L340.951 99.693C340.233 98.3428 338.615 98.057 336.943 98.9462C335.157 99.8961 334.572 101.553 335.456 103.214C336.328 104.855 338.034 105.307 339.82 104.358ZM346.068 101.035C347.72 100.157 348.401 98.7826 347.799 97.6505L347.738 97.5362L346.18 98.3646L346.236 98.4685C346.473 98.9151 346.278 99.3252 345.354 99.8167C344.346 100.352 343.79 100.208 343.323 99.4308L347.561 97.1776C347.488 96.99 347.437 96.8439 347.337 96.6569C346.47 95.0263 344.863 94.735 343.16 95.6407C341.446 96.5519 340.83 98.225 341.714 99.8868C342.697 101.736 344.334 101.958 346.068 101.035ZM343.775 96.8725C344.689 96.3865 345.264 96.4668 345.671 97.1302L342.908 98.5992C342.621 97.8854 342.85 97.364 343.775 96.8725Z" fill="white"/>
<path d="M318.752 136.151L316.483 131.882L315.905 130.897L315.989 130.852L316.95 131.633L320.92 134.465L322.271 133.747L322.143 128.872L322.033 127.638L322.117 127.594L322.611 128.624L324.88 132.892L326.002 132.296L322.302 125.337L320.775 126.149L320.934 131.234L321.089 133.003L321.006 133.047L319.605 131.941L315.457 128.976L313.931 129.788L317.631 136.747L318.752 136.151ZM329.737 130.444C331.461 129.527 332.034 127.823 331.189 126.234C330.333 124.624 328.606 124.157 326.882 125.074C325.168 125.985 324.589 127.678 325.445 129.288C326.29 130.877 328.023 131.355 329.737 130.444ZM329.207 129.446C327.96 130.109 327.126 129.793 326.546 128.703C325.961 127.602 326.16 126.723 327.406 126.06C328.663 125.392 329.503 125.719 330.088 126.819C330.668 127.91 330.463 128.778 329.207 129.446ZM335.869 127.183C337.323 126.41 337.975 125.331 337.461 124.365C337.008 123.513 336.226 123.396 334.918 123.892L333.635 124.361C332.801 124.671 332.516 124.636 332.301 124.231C332.041 123.743 332.263 123.358 333.208 122.856C334.351 122.248 334.833 122.405 335.159 123.017L335.192 123.08L336.304 122.489L336.287 122.458C335.635 121.232 334.343 121.106 332.764 121.946C331.175 122.791 330.697 123.871 331.178 124.775C331.636 125.637 332.449 125.737 333.491 125.343L335.003 124.779C335.796 124.491 336.117 124.493 336.344 124.919C336.587 125.376 336.396 125.744 335.388 126.28C334.308 126.854 333.787 126.851 333.428 126.176L333.384 126.093L332.262 126.689L332.279 126.721C332.914 127.915 334.207 128.067 335.869 127.183ZM342.419 123.567L341.883 122.56L340.948 123.057C340.304 123.399 339.925 123.388 339.588 122.754L338.301 120.334L340.171 119.34L339.674 118.405L337.804 119.399L337.202 118.267L336.091 118.858L336.693 119.99L335.82 120.454L336.317 121.389L337.19 120.925L338.51 123.407C339.178 124.664 340.123 124.788 341.234 124.197L342.419 123.567ZM346.017 121.654L344.901 119.556L347.186 118.341C348.734 117.518 349.318 116.062 348.501 114.524C347.678 112.977 346.149 112.657 344.602 113.48L341.195 115.292L344.895 122.25L346.017 121.654ZM345.034 114.543C346.083 113.985 346.833 114.093 347.379 115.121C347.926 116.149 347.596 116.831 346.547 117.389L344.366 118.548L342.852 115.703L345.034 114.543ZM354.273 117.398C355.997 116.481 356.57 114.777 355.725 113.188C354.869 111.578 353.142 111.111 351.418 112.028C349.704 112.939 349.125 114.632 349.981 116.242C350.826 117.831 352.559 118.309 354.273 117.398ZM353.743 116.4C352.496 117.063 351.662 116.747 351.082 115.657C350.497 114.556 350.696 113.677 351.942 113.014C353.199 112.346 354.039 112.672 354.624 113.773C355.204 114.864 354.999 115.732 353.743 116.4ZM359.969 116.5L358.257 113.281L358.299 113.258C359.009 114.093 360.083 114.308 361.246 113.69C362.856 112.834 363.164 111.284 362.314 109.685C361.463 108.085 359.98 107.475 358.38 108.326C357.165 108.972 356.747 109.94 357.048 111.006L356.954 111.056L356.192 109.622L355.164 110.169L358.848 117.097L359.969 116.5ZM357.705 112.242L357.655 112.148C357.064 111.037 357.421 110.155 358.574 109.542C359.654 108.967 360.53 109.035 361.192 110.281C361.849 111.517 361.432 112.285 360.321 112.876C359.22 113.462 358.268 113.301 357.705 112.242ZM366.666 110.808C367.996 110.101 368.239 108.906 367.942 107.945L368.004 107.912L368.855 109.511L369.883 108.964L367.138 103.802L366.027 104.393L367.385 106.948C367.982 108.07 367.761 108.933 366.619 109.541C365.528 110.121 364.822 109.87 364.308 108.904L362.817 106.1L361.706 106.691L363.357 109.796C363.992 110.991 365.212 111.581 366.666 110.808ZM372.024 107.826L368.324 100.867L367.202 101.464L370.902 108.422L372.024 107.826ZM374.634 106.571C375.808 105.947 376.352 104.992 376.158 103.976L376.231 103.937L376.916 105.225L377.944 104.678L376.276 101.541C375.619 100.305 374.407 99.8043 372.766 100.677C371.124 101.549 370.618 102.951 371.242 104.125L371.264 104.167L372.375 103.576L372.353 103.534C371.95 102.776 372.252 102.216 373.207 101.708C374.194 101.183 374.728 101.285 375.181 102.137L375.341 102.438L373.126 103.936C372.169 104.591 371.746 105.349 372.171 106.149C372.624 107.001 373.564 107.14 374.634 106.571ZM373.254 105.48C373.039 105.075 373.247 104.791 373.79 104.409L375.694 103.103C376.236 104.121 375.678 104.977 374.504 105.601C373.86 105.943 373.475 105.895 373.254 105.48ZM380.067 103.549L378.526 100.651C378.035 99.7271 378.139 99.0456 379.022 98.5762C379.79 98.1675 380.284 98.3446 380.676 99.082L380.919 99.539L382.03 98.9481L381.671 98.273C381.152 97.2967 380.196 96.726 379.022 97.35C377.963 97.9133 377.756 98.8763 378.042 99.79L377.969 99.8287L377.229 98.4369L376.201 98.9836L378.945 104.146L380.067 103.549ZM386.712 100.016L386.55 97.7838L390.227 95.8288L391.988 97.2108L393.255 96.5371L386.449 91.2294L384.871 92.0688L385.465 100.679L386.712 100.016ZM386.28 93.9175L386.16 92.7154L386.243 92.6712L387.173 93.4425L389.245 95.0588L386.461 96.5388L386.28 93.9175ZM396.437 94.9786C397.984 94.1558 398.652 92.6813 397.968 91.3934L397.907 91.2792L396.796 91.8701L396.834 91.9428C397.259 92.7426 396.888 93.4465 395.88 93.9822C394.717 94.6007 393.899 94.316 393.308 93.2046C392.706 92.0725 392.933 91.2459 394.096 90.6274C395.104 90.0917 395.895 90.1771 396.321 90.9769L396.354 91.0392L397.465 90.4483L397.41 90.3444C396.725 89.0565 395.129 88.786 393.581 89.6088C391.878 90.5145 391.341 92.1856 392.197 93.7955C393.042 95.3847 394.733 95.8843 396.437 94.9786ZM402.553 91.7266C404.1 90.9037 404.769 89.4293 404.084 88.1414L404.023 88.0271L402.912 88.618L402.95 88.6907C403.376 89.4905 403.004 90.1944 401.996 90.7301C400.833 91.3487 400.016 91.0639 399.425 89.9526C398.823 88.8204 399.049 87.9938 400.213 87.3753C401.22 86.8396 402.012 86.925 402.437 87.7248L402.47 87.7871L403.581 87.1962L403.526 87.0923C402.841 85.8044 401.245 85.5339 399.698 86.3568C397.994 87.2625 397.457 88.9336 398.313 90.5435C399.158 92.1326 400.849 92.6323 402.553 91.7266ZM408.7 88.4579C410.424 87.5412 410.997 85.8376 410.152 84.2485C409.296 82.6386 407.569 82.1714 405.845 83.0881C404.131 83.9994 403.553 85.6926 404.409 87.3025C405.254 88.8916 406.987 89.3692 408.7 88.4579ZM408.17 87.4608C406.924 88.1235 406.09 87.8076 405.51 86.7171C404.924 85.6161 405.123 84.7376 406.37 84.0749C407.627 83.4066 408.466 83.7329 409.052 84.8339C409.631 85.9245 409.427 86.7926 408.17 87.4608ZM414.541 85.3522C415.871 84.6453 416.115 83.4499 415.817 82.4891L415.879 82.4559L416.73 84.0554L417.758 83.5087L415.013 78.3466L413.902 78.9376L415.26 81.4926C415.857 82.6144 415.636 83.4777 414.494 84.0851C413.403 84.665 412.697 84.4143 412.183 83.4484L410.692 80.644L409.581 81.2349L411.232 84.3405C411.867 85.5349 413.087 86.1253 414.541 85.3522ZM419.899 82.3704L418.54 79.8153C417.944 78.6936 418.143 77.8414 419.275 77.2394C420.345 76.6706 421.041 76.9268 421.555 77.8927L423.046 80.6971L424.168 80.1006L422.516 76.9951C421.881 75.8006 420.661 75.2102 419.228 75.9723C417.919 76.6682 417.676 77.8636 417.984 78.8189L417.911 78.8576L417.06 77.258L416.032 77.8048L418.777 82.9668L419.899 82.3704ZM428.553 77.7688L428.017 76.7613L427.083 77.2584C426.439 77.6008 426.059 77.5892 425.723 76.9556L424.436 74.5356L426.305 73.5415L425.808 72.6067L423.939 73.6008L423.337 72.4687L422.225 73.0596L422.827 74.1917L421.955 74.6556L422.452 75.5904L423.324 75.1265L424.644 77.6089C425.313 78.8656 426.258 78.9893 427.369 78.3984L428.553 77.7688ZM427.311 71.0348L426.676 69.8404L425.555 70.4368L426.19 71.6313L427.311 71.0348ZM430.376 76.7993L427.632 71.6372L426.51 72.2337L429.255 77.3957L430.376 76.7993ZM432.537 75.6506L431.178 73.0955C430.582 71.9738 430.782 71.1215 431.914 70.5195C432.983 69.9507 433.679 70.2069 434.193 71.1729L435.684 73.9772L436.806 73.3808L435.154 70.2752C434.519 69.0808 433.299 68.4904 431.866 69.2525C430.557 69.9483 430.314 71.1437 430.622 72.099L430.549 72.1377L429.699 70.5382L428.67 71.0849L431.415 76.247L432.537 75.6506ZM439.8 71.1891C440.974 70.565 441.372 69.6341 441.144 68.7557L441.217 68.7171L441.891 69.9842C442.504 71.1371 442.249 71.6855 441.075 72.3096C439.974 72.895 439.389 72.8465 438.992 72.0987L437.88 72.6896C438.543 73.9359 439.983 74.0893 441.51 73.2775C443.203 72.3773 443.891 71.0655 442.969 69.331L440.545 64.7713L439.516 65.3181L440.201 66.606L440.139 66.6391C439.471 65.8349 438.402 65.7775 437.321 66.3519C435.753 67.1858 435.311 68.6598 436.073 70.0931C436.835 71.5264 438.263 72.0064 439.8 71.1891ZM437.205 69.4911C436.642 68.4317 437.082 67.7313 438.163 67.157C439.253 66.5771 440.135 66.6813 440.598 67.5538L440.676 67.6992C441.162 68.6132 440.793 69.4223 439.65 70.0298C438.591 70.5931 437.769 70.5506 437.205 69.4911ZM446.829 68.0511L446.668 65.8187L450.345 63.8637L452.106 65.2457L453.373 64.5719L446.567 59.2643L444.988 60.1037L445.583 68.7139L446.829 68.0511ZM446.398 61.9523L446.278 60.7502L446.361 60.706L447.291 61.4774L449.363 63.0937L446.579 64.5737L446.398 61.9523ZM455.953 65.4651L454.241 62.2453L454.282 62.2232C454.992 63.0579 456.066 63.2731 457.229 62.6545C458.839 61.7985 459.148 60.2489 458.297 58.6494C457.447 57.0499 455.963 56.4398 454.364 57.2903C453.149 57.9364 452.731 58.9046 453.031 59.9706L452.938 60.0203L452.176 58.587L451.147 59.1337L454.831 66.0615L455.953 65.4651ZM453.688 61.2066L453.639 61.1131C453.048 60.0018 453.405 59.1193 454.557 58.5063C455.638 57.9319 456.513 57.9995 457.176 59.2458C457.833 60.4818 457.415 61.2501 456.304 61.841C455.203 62.4264 454.252 62.266 453.688 61.2066ZM462.505 61.9811L460.793 58.7613L460.835 58.7392C461.545 59.5739 462.619 59.7891 463.782 59.1706C465.392 58.3146 465.7 56.765 464.85 55.1654C463.999 53.5659 462.516 52.9558 460.916 53.8063C459.701 54.4524 459.283 55.4207 459.584 56.4867L459.49 56.5364L458.728 55.103L457.7 55.6498L461.383 62.5775L462.505 61.9811ZM460.241 57.7226L460.191 57.6292C459.6 56.5178 459.957 55.6353 461.11 55.0223C462.19 54.448 463.065 54.5155 463.728 55.7619C464.385 56.9979 463.968 57.7661 462.856 58.357C461.755 58.9424 460.804 58.7821 460.241 57.7226Z" fill="white"/>
<g clip-path="url(#clip1_2203_16)">
<path d="M53.4217 264.727C51.5096 265.743 49.1353 265.017 48.1187 263.105L46.4142 259.9C46.2872 259.661 46.2237 259.541 46.2077 259.427C46.1808 259.236 46.2399 259.043 46.3692 258.899C46.4463 258.813 46.5657 258.75 46.8045 258.623L52.0618 255.827C52.3006 255.701 52.42 255.637 52.5341 255.621C52.7254 255.594 52.9188 255.653 53.0624 255.782C53.148 255.86 53.2115 255.979 53.3385 256.218L55.043 259.423C56.0597 261.336 55.3338 263.71 53.4217 264.727ZM53.4217 264.727L54.3421 266.458M53.5089 256.538L54.9515 255.771C55.2203 255.628 55.3548 255.557 55.4842 255.544C55.6567 255.528 55.8288 255.58 55.9625 255.691C56.0628 255.773 56.1343 255.908 56.2772 256.177L56.4306 256.465C56.716 257.002 56.8586 257.27 56.9167 257.522C57.0743 258.204 56.8558 258.919 56.3435 259.397C56.1547 259.573 55.8864 259.715 55.3498 260.001M46.5846 260.22L45.1421 260.987C44.8732 261.13 44.7388 261.202 44.6561 261.302C44.5458 261.436 44.4932 261.608 44.5098 261.78C44.5223 261.91 44.5938 262.044 44.7367 262.313L44.8901 262.601C45.1755 263.138 45.3181 263.406 45.4942 263.595C45.9719 264.107 46.6866 264.326 47.3691 264.168C47.6206 264.11 47.8889 263.968 48.4255 263.682M52.9407 270.163L58.198 267.368C58.3397 267.293 58.3934 267.117 58.3181 266.975C57.7156 265.842 56.3087 265.412 55.1756 266.014L53.5086 266.901C52.3755 267.503 51.9454 268.91 52.5479 270.043C52.6232 270.185 52.799 270.239 52.9407 270.163Z" stroke="#FF5555" stroke-width="1.30704" stroke-linecap="round" stroke-linejoin="round"/>
</g>
<circle cx="52.5015" cy="262.996" r="15.3578" transform="rotate(-28 52.5015 262.996)" stroke="#FF5555" stroke-width="0.653521"/>
<path d="M74.7878 245.145L74.6352 243.254L78.1146 241.404L79.5863 242.593L81.3728 241.643L74.6086 236.314L72.3859 237.495L73.0428 246.072L74.7878 245.145ZM74.3401 239.667L74.1916 238.361L74.3058 238.3L75.306 239.154L76.7667 240.322L74.492 241.531L74.3401 239.667ZM84.5646 240.079C86.2368 239.19 86.8989 237.679 86.1865 236.339L86.1092 236.194L84.5616 237.017L84.6058 237.1C84.9592 237.765 84.5981 238.263 83.7879 238.694C82.8635 239.185 82.2554 239.069 81.7474 238.113C81.2338 237.147 81.4774 236.578 82.4018 236.087C83.2119 235.656 83.8271 235.635 84.1805 236.3L84.2247 236.383L85.7723 235.56L85.695 235.415C84.977 234.065 83.3596 233.779 81.6874 234.668C79.9009 235.618 79.3162 237.274 80.1998 238.936C81.0723 240.577 82.7782 241.029 84.5646 240.079ZM89.5524 237.294L88.1663 234.687C87.7024 233.815 87.7979 233.218 88.8469 232.66C89.8233 232.141 90.3629 232.253 90.8268 233.126L92.2737 235.847L93.8316 235.019L92.1362 231.83C91.4956 230.625 90.3241 230.076 88.9219 230.821C87.5925 231.528 87.4104 232.664 87.7137 233.635L87.6306 233.68L85.8523 230.335L84.2943 231.164L87.9945 238.122L89.5524 237.294ZM93.1274 228.039L92.4757 226.813L90.9177 227.642L91.5694 228.867L93.1274 228.039ZM96.1758 233.772L93.409 228.569L91.851 229.397L94.6179 234.601L96.1758 233.772ZM99.8093 231.974C101.461 231.096 102.142 229.721 101.54 228.589L101.479 228.474L99.9214 229.303L99.9766 229.407C100.214 229.853 100.019 230.263 99.0947 230.755C98.0872 231.291 97.5311 231.147 97.0643 230.369L101.302 228.116C101.229 227.928 101.178 227.782 101.078 227.595C100.211 225.964 98.6043 225.673 96.9009 226.579C95.1872 227.49 94.5713 229.163 95.4549 230.825C96.4379 232.674 98.0748 232.896 99.8093 231.974ZM97.5159 227.811C98.4299 227.325 99.0055 227.405 99.4116 228.068L96.6488 229.537C96.3625 228.824 96.5915 228.302 97.5159 227.811ZM107.093 227.967L106.705 221.499L105.002 222.405L105.394 226.926L105.29 226.981L101.771 224.122L100.037 225.045L105.172 228.989L107.093 227.967ZM112.701 225.119C114.353 224.241 115.034 222.866 114.432 221.734L114.371 221.62L112.813 222.448L112.868 222.552C113.106 222.999 112.911 223.409 111.986 223.9C110.979 224.436 110.423 224.292 109.956 223.514L114.194 221.261C114.121 221.073 114.07 220.927 113.97 220.74C113.103 219.11 111.496 218.818 109.793 219.724C108.079 220.635 107.463 222.308 108.347 223.97C109.33 225.819 110.967 226.041 112.701 225.119ZM110.408 220.956C111.322 220.47 111.897 220.55 112.303 221.214L109.541 222.683C109.254 221.969 109.483 221.447 110.408 220.956ZM117.669 222.344L116.272 219.717C115.791 218.813 115.862 218.295 116.808 217.793C117.701 217.318 118.173 217.48 118.632 218.342L120.079 221.063L121.637 220.235L120.239 217.607C119.759 216.703 119.83 216.186 120.775 215.683C121.668 215.208 122.141 215.37 122.599 216.232L124.046 218.953L125.604 218.125L123.881 214.884C123.252 213.7 122.128 213.166 120.788 213.878C119.448 214.59 119.355 215.693 119.699 216.642L119.606 216.691C118.978 215.786 117.973 215.375 116.768 216.015C115.46 216.711 115.371 217.797 115.71 218.736L115.627 218.78L114.788 217.201L113.344 217.969L116.111 223.173L117.669 222.344ZM129.214 216.339C130.865 215.461 131.547 214.086 130.945 212.954L130.884 212.84L129.326 213.668L129.381 213.772C129.619 214.219 129.424 214.629 128.499 215.12C127.492 215.656 126.936 215.512 126.469 214.734L130.707 212.481C130.633 212.293 130.582 212.147 130.483 211.96C129.616 210.33 128.009 210.038 126.306 210.944C124.592 211.855 123.976 213.528 124.859 215.19C125.843 217.039 127.479 217.261 129.214 216.339ZM126.921 212.176C127.835 211.69 128.41 211.77 128.816 212.434L126.053 213.903C125.767 213.189 125.996 212.667 126.921 212.176ZM134.182 213.564L132.785 210.937C132.315 210.054 132.458 209.471 133.445 208.947C134.401 208.438 134.931 208.609 135.373 209.44L136.82 212.162L138.378 211.333L136.655 208.093C136.042 206.94 134.881 206.385 133.458 207.141C132.097 207.865 131.916 209.027 132.245 209.971L132.151 210.021L131.301 208.421L129.857 209.189L132.624 214.393L134.182 213.564ZM142.832 208.965L142.087 207.562L141.152 208.059C140.602 208.352 140.332 208.322 140.056 207.803L139.068 205.944L140.75 205.049L140.066 203.761L138.383 204.656L137.847 203.648L136.289 204.477L136.825 205.484L136.004 205.92L136.689 207.208L137.51 206.772L138.592 208.808C139.288 210.116 140.329 210.296 141.544 209.649L142.832 208.965ZM146.099 207.361C147.709 206.505 148.332 205.347 147.813 204.371C147.355 203.509 146.587 203.318 145.112 203.902L143.929 204.358C143.2 204.639 142.993 204.602 142.85 204.332C142.673 204 142.799 203.76 143.578 203.346C144.533 202.838 144.857 202.945 145.083 203.371L145.116 203.434L146.674 202.605L146.658 202.574C145.984 201.307 144.676 201.177 142.972 202.082C141.186 203.032 140.794 204.173 141.279 205.087C141.743 205.96 142.574 206.118 143.673 205.68L145.231 205.078C145.888 204.835 146.088 204.835 146.243 205.126C146.409 205.438 146.283 205.678 145.452 206.12C144.569 206.589 144.212 206.619 143.964 206.152L143.914 206.058L142.356 206.886L142.373 206.918C143.013 208.122 144.344 208.294 146.099 207.361Z" fill="white"/>
<path d="M86.1932 259.805C87.6266 259.043 88.0398 257.891 87.4047 256.696C86.9187 255.782 85.9946 255.447 84.7388 255.942L84.7001 255.869C85.6933 255.181 85.8244 254.326 85.3882 253.505C84.8028 252.404 83.6772 252.216 82.3477 252.923L78.4528 254.994L82.1529 261.953L86.1932 259.805ZM80.0998 255.411L82.7588 253.997C83.5377 253.583 84.0614 253.691 84.4094 254.345C84.7573 255 84.5227 255.511 83.7438 255.925L81.116 257.322L80.0998 255.411ZM81.6075 258.246L84.4118 256.755C85.2324 256.319 85.8135 256.41 86.2001 257.137C86.6032 257.895 86.3638 258.422 85.5329 258.864L82.7286 260.355L81.6075 258.246ZM91.8047 256.955C93.3419 256.137 94.0189 254.805 93.4335 253.704L93.3838 253.61L92.2621 254.207L92.3062 254.29C92.6321 254.903 92.3732 255.493 91.293 256.068C90.0986 256.703 89.3288 256.432 88.7571 255.457L93.1401 253.127C93.0885 252.955 93.0215 252.804 92.9221 252.617C92.0882 251.048 90.5282 250.745 88.9287 251.596C87.2461 252.49 86.7195 254.156 87.5755 255.766C88.4922 257.49 90.1117 257.855 91.8047 256.955ZM89.3774 252.49C90.4783 251.904 91.2718 252.069 91.7799 253.024L91.7909 253.045L88.4361 254.829C88.0069 253.871 88.2348 253.097 89.3774 252.49ZM97.755 253.791C99.2091 253.018 99.8609 251.938 99.3473 250.972C98.8944 250.121 98.1127 250.003 96.8042 250.499L95.5214 250.968C94.6872 251.278 94.4022 251.244 94.1868 250.838C93.9272 250.35 94.1491 249.966 95.0943 249.463C96.2368 248.856 96.7196 249.012 97.0454 249.625L97.0786 249.687L98.1899 249.096L98.1733 249.065C97.5217 247.84 96.2293 247.714 94.6505 248.553C93.0614 249.398 92.5833 250.479 93.0637 251.382C93.5221 252.244 94.335 252.345 95.3776 251.951L96.8896 251.386C97.6822 251.098 98.0033 251.101 98.2297 251.527C98.4727 251.984 98.282 252.351 97.2745 252.887C96.1943 253.461 95.6733 253.459 95.3143 252.784L95.2701 252.701L94.1484 253.297L94.1649 253.328C94.8 254.523 96.0931 254.674 97.755 253.791ZM104.305 250.175L103.769 249.167L102.834 249.664C102.19 250.007 101.811 249.995 101.474 249.362L100.187 246.942L102.057 245.948L101.56 245.013L99.6904 246.007L99.0885 244.875L97.9771 245.466L98.5791 246.598L97.7066 247.062L98.2036 247.997L99.0761 247.533L100.396 250.015C101.064 251.272 102.009 251.395 103.121 250.805L104.305 250.175ZM107.903 248.262L106.418 245.468L110.676 243.203L110.146 242.206L105.887 244.471L104.739 242.31L109.153 239.963L108.617 238.956L103.081 241.899L106.781 248.858L107.903 248.262ZM111.208 239.11L110.573 237.916L109.451 238.512L110.086 239.707L111.208 239.11ZM114.273 244.875L111.528 239.713L110.406 240.309L113.151 245.471L114.273 244.875ZM116.433 243.726L115.075 241.171C114.478 240.049 114.678 239.197 115.81 238.595C116.88 238.026 117.576 238.282 118.089 239.248L119.58 242.053L120.702 241.456L119.051 238.351C118.416 237.156 117.196 236.566 115.763 237.328C114.454 238.024 114.21 239.219 114.518 240.174L114.446 240.213L113.595 238.614L112.567 239.16L115.312 244.322L116.433 243.726ZM123.273 240.222C124.447 239.598 124.991 238.643 124.798 237.627L124.87 237.588L125.555 238.876L126.583 238.329L124.916 235.192C124.258 233.956 123.046 233.455 121.405 234.328C119.764 235.2 119.257 236.602 119.881 237.776L119.903 237.818L121.014 237.227L120.992 237.185C120.589 236.427 120.891 235.867 121.847 235.359C122.833 234.834 123.367 234.937 123.82 235.788L123.98 236.089L121.766 237.587C120.808 238.242 120.385 239 120.811 239.8C121.263 240.652 122.204 240.791 123.273 240.222ZM121.894 239.131C121.678 238.726 121.887 238.442 122.43 238.06L124.334 236.754C124.875 237.772 124.318 238.628 123.144 239.252C122.5 239.594 122.115 239.546 121.894 239.131ZM128.706 237.2L127.348 234.645C126.751 233.523 126.951 232.671 128.083 232.069C129.153 231.5 129.849 231.757 130.362 232.723L131.854 235.527L132.975 234.931L131.324 231.825C130.689 230.631 129.469 230.04 128.036 230.802C126.727 231.498 126.483 232.693 126.791 233.649L126.719 233.687L125.868 232.088L124.84 232.635L127.585 237.797L128.706 237.2ZM136.637 233.117C138.185 232.294 138.853 230.819 138.168 229.532L138.107 229.417L136.996 230.008L137.035 230.081C137.46 230.881 137.088 231.585 136.081 232.12C134.917 232.739 134.1 232.454 133.509 231.343C132.907 230.211 133.134 229.384 134.297 228.765C135.304 228.23 136.096 228.315 136.521 229.115L136.554 229.177L137.666 228.586L137.61 228.483C136.925 227.195 135.329 226.924 133.782 227.747C132.078 228.653 131.541 230.324 132.397 231.934C133.242 233.523 134.934 234.022 136.637 233.117ZM142.743 229.87C144.28 229.053 144.957 227.72 144.372 226.619L144.322 226.526L143.2 227.122L143.244 227.205C143.57 227.818 143.311 228.409 142.231 228.983C141.037 229.618 140.267 229.348 139.695 228.373L144.078 226.043C144.027 225.87 143.96 225.719 143.86 225.532C143.026 223.964 141.466 223.661 139.867 224.511C138.184 225.406 137.658 227.072 138.514 228.682C139.43 230.406 141.05 230.77 142.743 229.87ZM140.316 225.405C141.417 224.82 142.21 224.984 142.718 225.94L142.729 225.961L139.374 227.744C138.945 226.787 139.173 226.013 140.316 225.405ZM148.699 226.57L148.538 224.337L152.215 222.382L153.976 223.764L155.243 223.091L148.437 217.783L146.858 218.622L147.453 227.233L148.699 226.57ZM148.268 220.471L148.148 219.269L148.231 219.225L149.161 219.996L151.233 221.612L148.449 223.093L148.268 220.471ZM157.823 223.984L156.111 220.764L156.152 220.742C156.862 221.577 157.936 221.792 159.099 221.173C160.709 220.317 161.018 218.768 160.167 217.168C159.317 215.569 157.833 214.959 156.234 215.809C155.019 216.455 154.601 217.423 154.901 218.489L154.808 218.539L154.046 217.106L153.017 217.653L156.701 224.58L157.823 223.984ZM155.558 219.725L155.509 219.632C154.918 218.521 155.275 217.638 156.427 217.025C157.508 216.451 158.383 216.518 159.046 217.765C159.703 219.001 159.285 219.769 158.174 220.36C157.073 220.945 156.122 220.785 155.558 219.725ZM164.375 220.5L162.663 217.28L162.705 217.258C163.415 218.093 164.488 218.308 165.652 217.689C167.262 216.833 167.57 215.284 166.72 213.684C165.869 212.085 164.386 211.475 162.786 212.325C161.571 212.971 161.153 213.939 161.454 215.005L161.36 215.055L160.598 213.622L159.57 214.169L163.253 221.096L164.375 220.5ZM162.111 216.241L162.061 216.148C161.47 215.037 161.827 214.154 162.98 213.541C164.06 212.967 164.935 213.034 165.598 214.281C166.255 215.517 165.838 216.285 164.726 216.876C163.625 217.461 162.674 217.301 162.111 216.241ZM174.114 213.19C176.316 212.019 176.998 209.844 175.844 207.674C174.69 205.503 172.506 204.852 170.304 206.023C168.122 207.183 167.43 209.363 168.584 211.534C169.738 213.705 171.933 214.35 174.114 213.19ZM173.54 212.11C171.888 212.988 170.69 212.639 169.768 210.904C168.846 209.17 169.221 207.971 170.872 207.093C172.524 206.215 173.738 206.569 174.66 208.303C175.582 210.038 175.191 211.232 173.54 212.11ZM179.645 210.116L178.286 207.561C177.69 206.439 177.889 205.587 179.022 204.985C180.091 204.416 180.787 204.672 181.301 205.638L182.792 208.443L183.914 207.846L182.262 204.741C181.627 203.546 180.407 202.956 178.974 203.718C177.665 204.414 177.422 205.609 177.73 206.564L177.657 206.603L176.807 205.004L175.778 205.55L178.523 210.712L179.645 210.116ZM187.81 205.774L186.694 203.676L188.979 202.461C190.527 201.639 191.111 200.182 190.294 198.645C189.471 197.097 187.942 196.778 186.395 197.601L182.988 199.412L186.688 206.371L187.81 205.774ZM186.827 198.663C187.876 198.106 188.626 198.213 189.172 199.241C189.719 200.27 189.389 200.951 188.34 201.509L186.159 202.669L184.645 199.823L186.827 198.663ZM194.494 202.22L190.794 195.261L189.672 195.858L193.372 202.817L194.494 202.22ZM197.104 200.966C198.278 200.342 198.823 199.386 198.629 198.37L198.701 198.331L199.386 199.619L200.414 199.072L198.747 195.936C198.089 194.7 196.877 194.199 195.236 195.071C193.595 195.944 193.088 197.346 193.712 198.519L193.734 198.561L194.846 197.97L194.823 197.929C194.42 197.17 194.722 196.61 195.678 196.102C196.664 195.577 197.198 195.68 197.651 196.532L197.811 196.833L195.597 198.33C194.639 198.986 194.216 199.743 194.642 200.543C195.094 201.395 196.035 201.534 197.104 200.966ZM195.725 199.874C195.509 199.469 195.718 199.185 196.261 198.803L198.165 197.497C198.706 198.515 198.149 199.371 196.975 199.995C196.331 200.338 195.946 200.29 195.725 199.874ZM203.186 199.864C204.245 199.301 204.677 198.711 204.612 197.56L204.259 190.407L203.023 191.064L203.26 194.442L203.435 195.948L203.352 195.992L202.186 195.027L199.408 192.986L198.152 193.654L203.441 197.463L203.46 197.799C203.492 198.235 203.371 198.46 202.914 198.703L201.907 199.238L202.448 200.256L203.186 199.864ZM210.048 194.083C211.502 193.31 212.154 192.231 211.641 191.265C211.188 190.413 210.406 190.296 209.098 190.792L207.815 191.261C206.981 191.571 206.696 191.536 206.48 191.131C206.221 190.643 206.442 190.258 207.388 189.756C208.53 189.148 209.013 189.305 209.339 189.917L209.372 189.98L210.483 189.389L210.467 189.358C209.815 188.132 208.523 188.007 206.944 188.846C205.355 189.691 204.877 190.771 205.357 191.675C205.815 192.537 206.628 192.638 207.671 192.243L209.183 191.679C209.976 191.391 210.297 191.393 210.523 191.819C210.766 192.276 210.575 192.644 209.568 193.18C208.488 193.754 207.967 193.751 207.608 193.076L207.563 192.993L206.442 193.59L206.458 193.621C207.093 194.815 208.386 194.967 210.048 194.083ZM216.598 190.467L216.062 189.46L215.128 189.957C214.484 190.299 214.104 190.288 213.768 189.654L212.481 187.234L214.35 186.24L213.853 185.305L211.984 186.299L211.382 185.167L210.27 185.758L210.872 186.89L210 187.354L210.497 188.289L211.369 187.825L212.689 190.308C213.358 191.564 214.303 191.688 215.414 191.097L216.598 190.467ZM219.993 188.796C221.717 187.879 222.29 186.175 221.445 184.586C220.589 182.976 218.862 182.509 217.138 183.426C215.424 184.337 214.846 186.03 215.702 187.64C216.547 189.229 218.279 189.707 219.993 188.796ZM219.463 187.798C218.217 188.461 217.382 188.145 216.803 187.055C216.217 185.954 216.416 185.075 217.663 184.412C218.919 183.744 219.759 184.071 220.344 185.171C220.924 186.262 220.72 187.13 219.463 187.798ZM224.751 186.133L223.21 183.235C222.718 182.31 222.822 181.629 223.705 181.16C224.474 180.751 224.968 180.928 225.36 181.665L225.603 182.122L226.714 181.532L226.355 180.856C225.836 179.88 224.88 179.309 223.706 179.933C222.647 180.497 222.439 181.46 222.725 182.373L222.653 182.412L221.913 181.02L220.884 181.567L223.629 186.729L224.751 186.133ZM231.545 182.653C233.082 181.836 233.759 180.503 233.174 179.402L233.124 179.309L232.002 179.905L232.047 179.988C232.372 180.601 232.114 181.192 231.033 181.766C229.839 182.401 229.069 182.131 228.497 181.156L232.881 178.826C232.829 178.653 232.762 178.502 232.663 178.315C231.829 176.747 230.269 176.444 228.669 177.295C226.986 178.189 226.46 179.855 227.316 181.465C228.233 183.189 229.852 183.553 231.545 182.653ZM229.118 178.188C230.219 177.603 231.012 177.767 231.52 178.723L231.531 178.744L228.176 180.527C227.747 179.57 227.975 178.796 229.118 178.188Z" fill="white"/>
<line x1="252.273" y1="136.976" x2="250.859" y2="177.47" stroke="white" stroke-width="0.653522"/>
<path d="M414.04 266.667C416.616 266.667 417.91 265.373 417.91 263.255V258.668H416.145V263.126C416.145 264.467 415.651 264.949 414.04 264.949C412.44 264.949 411.934 264.467 411.934 263.126V258.668H410.17V263.255C410.17 265.373 411.475 266.667 414.04 266.667ZM420.563 260.056V258.668H418.798V260.056H420.563ZM420.563 266.549V260.656H418.798V266.549H420.563ZM423.721 266.549V262.114H425.545V260.656H423.651C423.604 260.079 423.968 259.95 424.745 259.95H425.545V258.668H425.027C423.215 258.668 422.18 259.467 421.992 260.656H421.122V262.114H421.957V266.549H423.721ZM427.892 266.549V263.138C427.892 262.397 428.174 262.032 428.962 262.032C429.68 262.032 429.939 262.314 429.939 262.961V263.573H431.703V262.597C431.703 261.444 431.162 260.538 429.845 260.538C428.656 260.538 428.033 261.267 427.868 262.22H427.762V260.656H426.127V266.549H427.892ZM433.471 268.549C434.954 268.549 435.742 268.208 436.306 266.972L439.224 260.656H437.259L436.142 263.338L435.671 264.737H435.554L435.059 263.349L433.813 260.656H431.813L434.695 266.573C434.577 266.831 434.389 266.949 433.954 266.949H432.507V268.549H433.471ZM443.228 266.549V264.373H445.581C447.404 264.373 448.58 263.326 448.58 261.514C448.58 259.703 447.404 258.668 445.581 258.668H441.463V266.549H443.228ZM445.392 260.256C446.369 260.256 446.827 260.55 446.827 261.514C446.827 262.502 446.369 262.785 445.392 262.785H443.228V260.256H445.392ZM450.971 266.549V263.138C450.971 262.397 451.253 262.032 452.041 262.032C452.759 262.032 453.017 262.314 453.017 262.961V263.573H454.782V262.597C454.782 261.444 454.241 260.538 452.923 260.538C451.735 260.538 451.112 261.267 450.947 262.22H450.841V260.656H449.206V266.549H450.971ZM458.55 266.667C460.42 266.667 461.667 265.773 461.667 264.49V264.361H459.903V264.479C459.903 264.984 459.538 265.255 458.491 265.255C457.35 265.255 456.927 264.867 456.88 263.961H461.679C461.703 263.761 461.726 263.608 461.726 263.396C461.726 261.55 460.444 260.538 458.515 260.538C456.574 260.538 455.244 261.726 455.244 263.608C455.244 265.702 456.585 266.667 458.55 266.667ZM458.479 261.914C459.515 261.914 459.985 262.255 460.032 263.032H456.903C456.985 262.267 457.432 261.914 458.479 261.914ZM464.239 266.549V263.573C464.239 262.549 464.545 262.126 465.615 262.126C466.627 262.126 466.968 262.491 466.968 263.467V266.549H468.732V263.573C468.732 262.549 469.038 262.126 470.109 262.126C471.12 262.126 471.462 262.491 471.462 263.467V266.549H473.226V262.879C473.226 261.538 472.485 260.538 470.967 260.538C469.45 260.538 468.85 261.467 468.709 262.467H468.603C468.474 261.373 467.78 260.538 466.415 260.538C464.933 260.538 464.345 261.455 464.204 262.444H464.109V260.656H462.474V266.549H464.239ZM475.887 260.056V258.668H474.123V260.056H475.887ZM475.887 266.549V260.656H474.123V266.549H475.887ZM479.246 266.667C480.799 266.667 481.516 265.737 481.669 264.749H481.763V266.549H483.41V260.656H481.646V263.643C481.646 264.643 481.234 265.09 480.081 265.09C478.964 265.09 478.564 264.69 478.564 263.738V260.656H476.799V264.326C476.799 265.643 477.587 266.667 479.246 266.667ZM486.077 266.549V263.573C486.077 262.549 486.383 262.126 487.453 262.126C488.465 262.126 488.806 262.491 488.806 263.467V266.549H490.571V263.573C490.571 262.549 490.876 262.126 491.947 262.126C492.958 262.126 493.3 262.491 493.3 263.467V266.549H495.064V262.879C495.064 261.538 494.323 260.538 492.806 260.538C491.288 260.538 490.688 261.467 490.547 262.467H490.441C490.312 261.373 489.618 260.538 488.253 260.538C486.771 260.538 486.183 261.455 486.042 262.444H485.948V260.656H484.312V266.549H486.077Z" fill="black"/>
<path d="M411.41 285.155V282.342H415.697V281.338H411.41V279.163H415.854V278.149H410.281V285.155H411.41ZM417.823 285.155V282.237C417.823 281.307 418.189 280.815 419.078 280.815C419.851 280.815 420.165 281.16 420.165 281.903V282.363H421.284V281.683C421.284 280.7 420.772 279.853 419.59 279.853C418.523 279.853 417.959 280.522 417.802 281.359H417.729V279.958H416.694V285.155H417.823ZM424.607 285.259C426.155 285.259 427.242 284.496 427.242 283.387V283.293H426.113V283.377C426.113 283.994 425.663 284.349 424.576 284.349C423.373 284.349 422.882 283.816 422.84 282.812H427.253C427.284 282.656 427.295 282.509 427.295 282.321C427.295 280.742 426.197 279.853 424.586 279.853C422.892 279.853 421.784 280.941 421.784 282.561C421.784 284.297 422.903 285.259 424.607 285.259ZM424.565 280.742C425.674 280.742 426.228 281.202 426.228 282.164V282.185H422.851C422.913 281.254 423.415 280.742 424.565 280.742ZM430.754 285.259C432.302 285.259 433.389 284.496 433.389 283.387V283.293H432.26V283.377C432.26 283.994 431.811 284.349 430.723 284.349C429.521 284.349 429.029 283.816 428.987 282.812H433.4C433.431 282.656 433.442 282.509 433.442 282.321C433.442 280.742 432.344 279.853 430.734 279.853C429.04 279.853 427.931 280.941 427.931 282.561C427.931 284.297 429.05 285.259 430.754 285.259ZM430.713 280.742C431.821 280.742 432.375 281.202 432.375 282.164V282.185H428.998C429.061 281.254 429.562 280.742 430.713 280.742ZM439.557 285.155V279.163H442.307V278.149H435.677V279.163H438.438V285.155H439.557ZM444.096 285.155V282.237C444.096 281.307 444.462 280.815 445.351 280.815C446.125 280.815 446.439 281.16 446.439 281.903V282.363H447.557V281.683C447.557 280.7 447.045 279.853 445.864 279.853C444.797 279.853 444.232 280.522 444.076 281.359H444.002V279.958H442.967V285.155H444.096ZM449.396 279.351V278.149H448.267V279.351H449.396ZM449.396 285.155V279.958H448.267V285.155H449.396ZM451.968 285.259C453.15 285.259 453.976 284.736 454.248 283.858H454.321V285.155H455.356V281.997C455.356 280.752 454.614 279.853 452.962 279.853C451.31 279.853 450.327 280.742 450.327 281.924V281.965H451.446V281.924C451.446 281.16 451.916 280.847 452.878 280.847C453.871 280.847 454.248 281.15 454.248 282.007V282.31L451.885 282.561C450.86 282.676 450.212 283.095 450.212 283.9C450.212 284.757 450.891 285.259 451.968 285.259ZM451.341 283.827C451.341 283.419 451.623 283.283 452.209 283.21L454.248 282.98C454.248 284.004 453.453 284.444 452.272 284.444C451.623 284.444 451.341 284.245 451.341 283.827ZM457.494 285.155V278.149H456.364V285.155H457.494Z" fill="black"/>
<defs>
<filter id="filter0_f_2203_16" x="146.396" y="107.671" width="313.025" height="318.499" filterUnits="userSpaceOnUse" color-interpolation-filters="sRGB">
<feFlood flood-opacity="0" result="BackgroundImageFix"/>
<feBlend mode="normal" in="SourceGraphic" in2="BackgroundImageFix" result="shape"/>
<feGaussianBlur stdDeviation="65.3521" result="effect1_foregroundBlur_2203_16"/>
</filter>
<clipPath id="clip0_2203_16">
<rect width="15.6845" height="15.6845" fill="white" transform="translate(277.321 134.575) rotate(-28)"/>
</clipPath>
<clipPath id="clip1_2203_16">
<rect width="15.6845" height="15.6845" fill="white" transform="translate(41.8953 259.753) rotate(-28)"/>
</clipPath>
</defs>
</svg>
